<?xml version="1.0" encoding="UTF-8"?>
<svg width="1200pt" height="1200pt" version="1.1" viewBox="0 0 1200 1200" xmlns="http://www.w3.org/2000/svg">
 <path d="m864.27 864.27c-16.219 16.219-16.215 42.605 0 58.82 16.223 16.223 42.609 16.227 58.828 0.007812 16.215-16.215 16.215-42.605-0.007812-58.828-16.215-16.215-42.605-16.215-58.82 0z" fill="#faebd6"/>
 <path d="m373.03 115.97-257.06 257.06c-35.418 35.418-35.418 93.039 0 128.46l582.55 582.55c35.414 35.414 93.035 35.414 128.45-0.003906l257.05-257.05c35.422-35.422 35.422-93.043 0.007812-128.46l-582.55-582.55c-35.414-35.418-93.035-35.418-128.46 0zm-120.77 190.49c-3.2812-3.2812-3.2812-8.6211 0-11.898l42.305-42.305c3.2812-3.2812 8.6211-3.2812 11.898 0l0.98828 0.98828c3.2812 3.2812 3.2812 8.6172 0 11.898l-42.305 42.305c-3.2812 3.2812-8.6211 3.2812-11.898 0zm678.91 624.7c-20.664 20.664-54.289 20.664-74.961-0.007812-20.664-20.664-20.664-54.289 0-74.953s54.289-20.664 74.953 0c20.672 20.672 20.672 54.297 0.007812 74.961zm65.145-293.02c7.7695 7.7695 7.7695 20.406 0 28.172l-329.99 329.99c-7.7695 7.7695-20.406 7.7695-28.172 0l-469.59-469.59c-7.7695-7.7695-7.7695-20.406 0-28.172l329.99-329.99c7.7695-7.7695 20.406-7.7695 28.172 0z" fill="#faebd6"/>
 <path d="m439.77 1051.6c-183.89-61.91-310.71-232.45-315.61-428.37-0.16406-6.5312-5.375-11.777-11.906-11.777l-33.043 0.003906c-6.7227 0-12.262 5.5469-12.105 12.266 5.207 224.59 153.09 419.74 366.3 485.89 2.7969 0.86719 4.5586 3.6094 4.1328 6.5078l-6.0234 41.234c-0.66797 4.5703 3.8633 8.1484 8.1562 6.4414l139.25-55.398c4.293-1.707 5.125-7.418 1.5-10.281l-117.59-92.906c-3.625-2.8633-8.9883-0.73047-9.6562 3.8398l-5.5 37.668c-0.53906 3.7109-4.3555 6.0859-7.9141 4.8867z" fill="#faebd6"/>
 <path d="m762.45 83.93 6.0234-41.234c0.66797-4.5703-3.8633-8.1484-8.1562-6.4414l-139.25 55.398c-4.293 1.707-5.125 7.418-1.5 10.281l117.59 92.91c3.625 2.8633 8.9883 0.73047 9.6562-3.8398l5.5-37.668c0.54297-3.7148 4.3633-6.0898 7.9219-4.8906 183.88 61.914 310.71 232.45 315.61 428.37 0.16406 6.5312 5.375 11.777 11.906 11.777h33.039c6.7227 0 12.262-5.5469 12.105-12.266-5.207-224.59-153.09-419.73-366.3-485.89-2.7969-0.86719-4.5586-3.6055-4.1328-6.5078z" fill="#faebd6"/>
</svg>
